<svg xmlns="http://www.w3.org/2000/svg" class="diagram-root" style="background: #f5f6f6" xmlns:xlink="http://www.w3.org/1999/xlink"><style>.diagram-root { font-family: "Helvetica Neue", sans-serif; font-size: 12px; } .t { overflow: visible; } .t-bg { y: 40; fill: #fff;   } .th { fill: #005aa0;   } .tht { fill: #fff; font-size: 14px;  } .tf { fill: #323c46; overflow: visible; } .tf.pk { fill: #005aa0; font-weight: bold; } .tf.fk { font-weight: bold; } .ty { fill: #adb1b5; font-weight: normal; text-anchor: end; } .r { fill: transparent; stroke: #c3c3c3; stroke-width: 1; } .l { stroke: 1; } .i { fill: #c2c7ce; stroke: #c2c7ce; } .i.ix { fill: #afb3b6; stroke: #000; } .fa { fill: transparent; overflow: visible; } .fa .bg.hover { fill: #f7f7f7; } .c { cy: 12; r: 4; stroke: #d2d2dc; fill: #d2d2dc; } .hr { fill: transparent; stroke: #323c46; stroke-opacity: 0.035; stroke-width: 13; } .dc { stroke: #fa5a3c; fill: #fa5a3c; } .x { stroke: white; stroke-width: 1; } .hl .th { fill: #1b9bff; } .hl .tht {  } .fhl .bg { fill: #e7f4ff; } .fhls .bg {  } .r.hl { stroke: #1b9bff; } .dim { opacity: 0.25; }</style><g class="drawing-wrapper" transform="translate(-61 8) scale(1)"><g class="rs"><path class="r" id="h1736270986" d="M 83 279 m -1 0 a 1 1 0 1 0 2 0 a 1 1 0 1 0 -2 0 M 83 279 m -0.5 0 a 0.5 0.5 0 1 0 1 0 a 0.5 0.5 0 1 0 -1 0 M 83 279 L 83 279 L 71 279 M 83 285 m -1 0 a 1 1 0 1 0 2 0 a 1 1 0 1 0 -2 0 M 83 285 m -0.5 0 a 0.5 0.5 0 1 0 1 0 a 0.5 0.5 0 1 0 -1 0 M 83 285 L 83 285 L 76 279 L 83 273 M 83 273 m -1 0 a 1 1 0 1 0 2 0 a 1 1 0 1 0 -2 0 M 83 273 m -0.5 0 a 0.5 0.5 0 1 0 1 0 a 0.5 0.5 0 1 0 -1 0 M 71 279 C 21 279 -97.8 79 269 79 M 281 79 m -1 0 a 1 1 0 1 0 2 0 a 1 1 0 1 0 -2 0 M 281 79 m -0.5 0 a 0.5 0.5 0 1 0 1 0 a 0.5 0.5 0 1 0 -1 0 M 281 79 L 281 79 L 269 79 M 275 85 L 275 85 L 275 73" /><path class="r" id="h3233325729" d="M 83 304 m -1 0 a 1 1 0 1 0 2 0 a 1 1 0 1 0 -2 0 M 83 304 m -0.5 0 a 0.5 0.5 0 1 0 1 0 a 0.5 0.5 0 1 0 -1 0 M 83 304 L 83 304 L 71 304 M 83 310 m -1 0 a 1 1 0 1 0 2 0 a 1 1 0 1 0 -2 0 M 83 310 m -0.5 0 a 0.5 0.5 0 1 0 1 0 a 0.5 0.5 0 1 0 -1 0 M 83 310 L 83 310 L 76 304 L 83 298 M 83 298 m -1 0 a 1 1 0 1 0 2 0 a 1 1 0 1 0 -2 0 M 83 298 m -0.5 0 a 0.5 0.5 0 1 0 1 0 a 0.5 0.5 0 1 0 -1 0 M 71 304 C 21 304 -82.8 448 244 448 M 256 448 m -1 0 a 1 1 0 1 0 2 0 a 1 1 0 1 0 -2 0 M 256 448 m -0.5 0 a 0.5 0.5 0 1 0 1 0 a 0.5 0.5 0 1 0 -1 0 M 256 448 L 256 448 L 244 448 M 250 454 L 250 454 L 250 442" /><path class="r" id="h639454232" d="M 541 425 m -1 0 a 1 1 0 1 0 2 0 a 1 1 0 1 0 -2 0 M 541 425 m -0.5 0 a 0.5 0.5 0 1 0 1 0 a 0.5 0.5 0 1 0 -1 0 M 541 425 L 541 425 L 529 425 M 541 431 m -1 0 a 1 1 0 1 0 2 0 a 1 1 0 1 0 -2 0 M 541 431 m -0.5 0 a 0.5 0.5 0 1 0 1 0 a 0.5 0.5 0 1 0 -1 0 M 541 431 L 541 431 L 534 425 L 541 419 M 541 419 m -1 0 a 1 1 0 1 0 2 0 a 1 1 0 1 0 -2 0 M 541 419 m -0.5 0 a 0.5 0.5 0 1 0 1 0 a 0.5 0.5 0 1 0 -1 0 M 529 425 Q 505.76 425 482.52 436.5 T 436.03 448 M 424.03 448 m -1 0 a 1 1 0 1 0 2 0 a 1 1 0 1 0 -2 0 M 424.03 448 m -0.5 0 a 0.5 0.5 0 1 0 1 0 a 0.5 0.5 0 1 0 -1 0 M 424.03 448 L 424.03 448 L 436.03 448 M 430.03 454 L 430.03 454 L 430.03 442" /><path class="r" id="h1499507187" d="M 541 450 m -1 0 a 1 1 0 1 0 2 0 a 1 1 0 1 0 -2 0 M 541 450 m -0.5 0 a 0.5 0.5 0 1 0 1 0 a 0.5 0.5 0 1 0 -1 0 M 541 450 L 541 450 L 529 450 M 535 456 L 535 456 L 535 444 M 529 450 Q 510.18 450 491.35 264.5 T 453.69 79 M 441.69 79 m -1 0 a 1 1 0 1 0 2 0 a 1 1 0 1 0 -2 0 M 441.69 79 m -0.5 0 a 0.5 0.5 0 1 0 1 0 a 0.5 0.5 0 1 0 -1 0 M 441.69 79 L 441.69 79 L 453.69 79 M 447.69 85 L 447.69 85 L 447.69 73" /><path class="r" id="h221257298" d="M 594 219 m -1 0 a 1 1 0 1 0 2 0 a 1 1 0 1 0 -2 0 M 594 219 m -0.5 0 a 0.5 0.5 0 1 0 1 0 a 0.5 0.5 0 1 0 -1 0 M 594 219 L 594 219 L 582 219 M 588 225 L 588 225 L 588 213 M 582 219 Q 549.92 219 517.85 149 T 453.69 79 M 441.69 79 m -1 0 a 1 1 0 1 0 2 0 a 1 1 0 1 0 -2 0 M 441.69 79 m -0.5 0 a 0.5 0.5 0 1 0 1 0 a 0.5 0.5 0 1 0 -1 0 M 441.69 79 L 441.69 79 L 453.69 79 M 447.69 85 L 447.69 85 L 447.69 73" /><path class="r" id="h1168633520" d="M 760 133 m -1 0 a 1 1 0 1 0 2 0 a 1 1 0 1 0 -2 0 M 760 133 m -0.5 0 a 0.5 0.5 0 1 0 1 0 a 0.5 0.5 0 1 0 -1 0 M 760 133 L 760 133 L 748 133 M 754 139 L 754 139 L 754 127 M 748 133 Q 674.43 133 600.85 106 T 453.69 79 M 441.69 79 m -1 0 a 1 1 0 1 0 2 0 a 1 1 0 1 0 -2 0 M 441.69 79 m -0.5 0 a 0.5 0.5 0 1 0 1 0 a 0.5 0.5 0 1 0 -1 0 M 441.69 79 L 441.69 79 L 453.69 79 M 447.69 85 L 447.69 85 L 447.69 73" /></g><g class="hrs" /><g class="ts"><svg class="t" id="h3708248841" x="256" y="391" width="168.03" height="100"><rect class="th" width="168.03" height="40" /><text class="tht" x="13" y="25">Departments</text><rect class="t-bg" y="40" width="168.03" height="60" /><text class="tf pk" x="13" y="61">dept_no<tspan class="ty" x="155.03">VARCHAR</tspan></text><path class="i pk" transform="translate(76.35 48) scale(0.65)" d="M 7 14 A 2 2 0 0 1 5 12 A 2 2 0 0 1 7 10 A 2 2 0 0 1 9 12 A 2 2 0 0 1 7 14 M 12.65 10 C 11.83 7.67 9.61 6 7 6 A 6 6 0 0 0 1 12 A 6 6 0 0 0 7 18 C 9.61 18 11.83 16.33 12.65 14 H 17 V 18 H 21 V 14 H 23 V 10 H 12.65 Z" /><text class="tf" x="13" y="86">dept_name<tspan class="ty" x="155.03">VARCHAR</tspan></text></svg><svg class="t" id="h2403958395" x="541" y="368" width="148.03" height="150"><rect class="th" width="148.03" height="40" /><text class="tht" x="13" y="25">Dept_manager</text><rect class="t-bg" y="40" width="148.03" height="110" /><text class="tf fk" x="13" y="61">dept_no<tspan class="ty" x="135.03">VARCHAR</tspan></text><text class="tf fk" x="13" y="86">emp_no<tspan class="ty" x="135.03">int</tspan></text><text class="tf" x="13" y="111">from_date<tspan class="ty" x="135.03">date</tspan></text><text class="tf" x="13" y="136">to_date<tspan class="ty" x="135.03">date</tspan></text></svg><svg class="t" id="h3858243705" x="594" y="162" width="123.35" height="150"><rect class="th" width="123.35" height="40" /><text class="tht" x="13" y="25">Salaries</text><rect class="t-bg" y="40" width="123.35" height="110" /><text class="tf fk" x="13" y="61">emp_no<tspan class="ty" x="110.35">int</tspan></text><text class="tf" x="13" y="86">salary<tspan class="ty" x="110.35">int</tspan></text><text class="tf" x="13" y="111">from_date<tspan class="ty" x="110.35">date</tspan></text><text class="tf" x="13" y="136">to_date<tspan class="ty" x="110.35">date</tspan></text></svg><svg class="t" id="h3517680912" x="760" y="76" width="123.35" height="150"><rect class="th" width="123.35" height="40" /><text class="tht" x="13" y="25">Titles</text><rect class="t-bg" y="40" width="123.35" height="110" /><text class="tf fk" x="13" y="61">emp_no<tspan class="ty" x="110.35">int</tspan></text><text class="tf" x="13" y="86">title<tspan class="ty" x="110.35">VARCHAR</tspan></text><text class="tf" x="13" y="111">from_date<tspan class="ty" x="110.35">date</tspan></text><text class="tf" x="13" y="136">to_date<tspan class="ty" x="110.35">date</tspan></text></svg><svg class="t" id="h3299212598" x="281" y="22" width="160.69" height="200"><rect class="th" width="160.69" height="40" /><text class="tht" x="13" y="25">Employees</text><rect class="t-bg" y="40" width="160.69" height="160" /><text class="tf pk" x="13" y="61">emp_no<tspan class="ty" x="147.69">int</tspan></text><path class="i pk" transform="translate(115.02 48) scale(0.65)" d="M 7 14 A 2 2 0 0 1 5 12 A 2 2 0 0 1 7 10 A 2 2 0 0 1 9 12 A 2 2 0 0 1 7 14 M 12.65 10 C 11.83 7.67 9.61 6 7 6 A 6 6 0 0 0 1 12 A 6 6 0 0 0 7 18 C 9.61 18 11.83 16.33 12.65 14 H 17 V 18 H 21 V 14 H 23 V 10 H 12.65 Z" /><text class="tf" x="13" y="86">birth_date<tspan class="ty" x="147.69">date</tspan></text><text class="tf" x="13" y="111">first_name<tspan class="ty" x="147.69">VARCHAR</tspan></text><text class="tf" x="13" y="136">last_name<tspan class="ty" x="147.69">VARCHAR</tspan></text><text class="tf" x="13" y="161">gender<tspan class="ty" x="147.69">VARCHAR</tspan></text><text class="tf" x="13" y="186">hire_date<tspan class="ty" x="147.69">date</tspan></text></svg><svg class="t" id="h4086156755" x="83" y="222" width="148.03" height="150"><rect class="th" width="148.03" height="40" /><text class="tht" x="13" y="25">Dept_emp</text><rect class="t-bg" y="40" width="148.03" height="110" /><text class="tf fk" x="13" y="61">emp_no<tspan class="ty" x="135.03">int</tspan></text><text class="tf fk" x="13" y="86">dept_no<tspan class="ty" x="135.03">VARCHAR</tspan></text><text class="tf" x="13" y="111">from_date<tspan class="ty" x="135.03">date</tspan></text><text class="tf" x="13" y="136">to_date<tspan class="ty" x="135.03">date</tspan></text></svg></g></g><text class="qdbd-link" y="20" x="10">www.quickdatabasediagrams.com</text></svg>